<?xml version="1.0" encoding="UTF-8" standalone="no"?>
<!-- Created with Inkscape (http://www.inkscape.org/) -->

<svg
   xmlns:dc="http://purl.org/dc/elements/1.1/"
   xmlns:cc="http://creativecommons.org/ns#"
   xmlns:rdf="http://www.w3.org/1999/02/22-rdf-syntax-ns#"
   xmlns:svg="http://www.w3.org/2000/svg"
   xmlns="http://www.w3.org/2000/svg"
   xmlns:sodipodi="http://sodipodi.sourceforge.net/DTD/sodipodi-0.dtd"
   xmlns:inkscape="http://www.inkscape.org/namespaces/inkscape"
   width="40"
   height="40"
   id="svg2"
   version="1.1"
   inkscape:version="0.48.5 r10040"
   sodipodi:docname="icon-scrollup.svg">
  <defs
     id="defs4" />
  <sodipodi:namedview
     id="base"
     pagecolor="#ffffff"
     bordercolor="#666666"
     borderopacity="1.0"
     inkscape:pageopacity="0.0"
     inkscape:pageshadow="2"
     inkscape:zoom="5.6568543"
     inkscape:cx="25.920247"
     inkscape:cy="46.15329"
     inkscape:document-units="px"
     inkscape:current-layer="layer1"
     showgrid="false"
     fit-margin-top="0"
     fit-margin-left="0"
     fit-margin-right="0"
     fit-margin-bottom="0"
     inkscape:window-width="2560"
     inkscape:window-height="1033"
     inkscape:window-x="-4"
     inkscape:window-y="-4"
     inkscape:window-maximized="1" />
  <metadata
     id="metadata7">
    <rdf:RDF>
      <cc:Work
         rdf:about="">
        <dc:format>image/svg+xml</dc:format>
        <dc:type
           rdf:resource="http://purl.org/dc/dcmitype/StillImage" />
        <dc:title></dc:title>
      </cc:Work>
    </rdf:RDF>
  </metadata>
  <g
     inkscape:label="Layer 1"
     inkscape:groupmode="layer"
     id="layer1"
     transform="translate(-787.44666,-808.74744)">
    <path
       style="fill:#ffffff;fill-opacity:1;stroke:none"
       d="m 805.68103,817.49735 -7.0625,7.03125 c -0.97934,0.97934 -0.97934,2.58316 0,3.5625 0.97934,0.97934 2.55191,0.97934 3.53125,0 l 2.78125,-2.8125 0,12.90625 c 0,1.42296 1.115,2.5625 2.5,2.5625 1.385,0 2.5,-1.13954 2.5,-2.5625 l 0,-12.90625 2.8125,2.8125 c 0.97934,0.97934 2.55191,0.97934 3.53125,0 0.97934,-0.97934 0.97934,-2.58316 0,-3.5625 l -7.0625,-7.03125 c 0,0 -0.75016,-0.75498 -1.78115,-0.7498 -1.03099,0.005 -1.7501,0.7498 -1.7501,0.7498 z"
       id="rect2996"
       inkscape:connector-curvature="0"
       sodipodi:nodetypes="ccsccssscsscczc" />
  </g>
</svg>
