<?xml version="1.0" encoding="UTF-8" standalone="no"?>
<!-- Created with Inkscape (http://www.inkscape.org/) -->

<svg
   xmlns:dc="http://purl.org/dc/elements/1.1/"
   xmlns:cc="http://creativecommons.org/ns#"
   xmlns:rdf="http://www.w3.org/1999/02/22-rdf-syntax-ns#"
   xmlns:svg="http://www.w3.org/2000/svg"
   xmlns="http://www.w3.org/2000/svg"
   xmlns:sodipodi="http://sodipodi.sourceforge.net/DTD/sodipodi-0.dtd"
   xmlns:inkscape="http://www.inkscape.org/namespaces/inkscape"
   width="50"
   height="500"
   id="svg3777"
   version="1.1"
   inkscape:version="0.48.5 r10040"
   sodipodi:docname="icon-catalog.svg">
  <defs
     id="defs3779" />
  <sodipodi:namedview
     id="base"
     pagecolor="#ffffff"
     bordercolor="#666666"
     borderopacity="1.0"
     inkscape:pageopacity="0.0"
     inkscape:pageshadow="2"
     inkscape:zoom="2.8284271"
     inkscape:cx="60.060838"
     inkscape:cy="428.59979"
     inkscape:document-units="px"
     inkscape:current-layer="layer1"
     showgrid="false"
     fit-margin-top="0"
     fit-margin-left="0"
     fit-margin-right="0"
     fit-margin-bottom="0"
     inkscape:window-width="2560"
     inkscape:window-height="1033"
     inkscape:window-x="-4"
     inkscape:window-y="-4"
     inkscape:window-maximized="1"
     showguides="true"
     inkscape:guide-bbox="true">
    <sodipodi:guide
       orientation="0,1"
       position="52,450"
       id="guide3753" />
    <sodipodi:guide
       orientation="0,1"
       position="53.961086,400.00147"
       id="guide3755" />
  </sodipodi:namedview>
  <metadata
     id="metadata3782">
    <rdf:RDF>
      <cc:Work
         rdf:about="">
        <dc:format>image/svg+xml</dc:format>
        <dc:type
           rdf:resource="http://purl.org/dc/dcmitype/StillImage" />
        <dc:title />
      </cc:Work>
    </rdf:RDF>
  </metadata>
  <g
     inkscape:label="Layer 1"
     inkscape:groupmode="layer"
     id="layer1"
     transform="translate(-679.6339,44.988004)">
    <path
       sodipodi:type="star"
       style="fill:#ffffff;fill-opacity:1;stroke:none"
       id="path2996"
       sodipodi:sides="5"
       sodipodi:cx="-1067.9838"
       sodipodi:cy="777.60071"
       sodipodi:r1="30.267727"
       sodipodi:r2="15.230773"
       sodipodi:arg1="-0.26179939"
       sodipodi:arg2="0.40013342"
       inkscape:flatsided="false"
       inkscape:rounded="0"
       inkscape:randomized="0"
       d="m -1038.7474,769.76684 -15.2087,13.76688 2.4573,19.45164 -17.7928,-10.21013 -17.7403,8.34792 4.2122,-20.07709 -13.4214,-14.29234 20.396,-2.19818 9.4454,-17.18108 8.3934,18.71853 z"
       inkscape:transform-center-x="0.014984917"
       inkscape:transform-center-y="-1.7429029"
       transform="matrix(0.60701104,-0.03340973,0.03340973,0.60701104,1326.9473,-525.93836)" />
    <g
       transform="matrix(0.70710678,0.70710678,-0.70710678,0.70710678,0,0)"
       style="font-size:20.84096527px;font-style:normal;font-variant:normal;font-weight:bold;font-stretch:normal;text-align:start;line-height:125%;letter-spacing:0px;word-spacing:0px;writing-mode:lr-tb;text-anchor:start;fill:#ffffff;fill-opacity:1;stroke:none;font-family:Sans;-inkscape-font-specification:Sans Bold"
       id="text3768">
      <path
         d="m 495.96955,-469.60977 0,-14.91839 2.93076,0 6.10575,9.96255 0,-9.96255 2.79847,0 0,14.91839 -3.02234,0 -6.01417,-9.7285 0,9.7285 z"
         style=""
         id="path3775" />
      <path
         d="m 510.99988,-469.60977 0,-14.91839 11.06158,0 0,2.52371 -8.04941,0 0,3.30728 7.48972,0 0,2.51354 -7.48972,0 0,4.06032 8.33435,0 0,2.51354 z"
         style=""
         id="path3777" />
      <path
         d="m 527.03765,-469.60977 -3.56169,-14.91839 3.08341,0 2.24895,10.24749 2.72723,-10.24749 3.58204,0 2.6153,10.42048 2.28966,-10.42048 3.03252,0 -3.62274,14.91839 -3.19535,0 -2.97146,-11.15317 -2.96129,11.15317 z"
         style=""
         id="path3779" />
    </g>
  </g>
</svg>
