<?xml version="1.0" encoding="UTF-8" standalone="no"?>
<!-- Created with Inkscape (http://www.inkscape.org/) -->

<svg
   xmlns:dc="http://purl.org/dc/elements/1.1/"
   xmlns:cc="http://creativecommons.org/ns#"
   xmlns:rdf="http://www.w3.org/1999/02/22-rdf-syntax-ns#"
   xmlns:svg="http://www.w3.org/2000/svg"
   xmlns="http://www.w3.org/2000/svg"
   version="1.1"
   width="20.5"
   height="20"
   id="svg2">
  <defs
     id="defs4" />
  <metadata
     id="metadata7">
    <rdf:RDF>
      <cc:Work
         rdf:about="">
        <dc:format>image/svg+xml</dc:format>
        <dc:type
           rdf:resource="http://purl.org/dc/dcmitype/StillImage" />
        <dc:title></dc:title>
      </cc:Work>
    </rdf:RDF>
  </metadata>
  <g
     transform="translate(-597.64766,-824.17893)"
     id="layer1">
    <path
       d="m 597.64766,824.17893 0,2 c 0,0 2.56428,0.12856 3,1 1.00004,1.99999 3,11 3,11 l 10,0 4.5,-7.8125 -1.71875,-1 -3.9375,6.8125 -7.28125,0 c -0.3637,-1.4279 -1.43266,-5.60113 -2.25,-8.9375 -0.25858,-1.05552 -0.82606,-1.57607 -1.3125,-2.0625 -0.99999,-1 -4,-1 -4,-1 z m 10,1 0,4 -2,0 3.5,3.5 3.5,-3.5 -2,0 0,-4 -3,0 z m -2,15 c -1.10457,0 -2,0.89543 -2,2 0,1.10457 0.89543,2 2,2 1.10457,0 2,-0.89543 2,-2 0,-1.10457 -0.89543,-2 -2,-2 z m 7,0 c -1.10457,0 -2,0.89543 -2,2 0,1.10457 0.89543,2 2,2 1.10457,0 2,-0.89543 2,-2 0,-1.10457 -0.89543,-2 -2,-2 z"
       id="rect2996"
       style="fill:#005baa;fill-opacity:1;stroke:none" />
  </g>
</svg>
