<?xml version="1.0" encoding="UTF-8" standalone="no"?>
<!-- Created with Inkscape (http://www.inkscape.org/) -->

<svg
   xmlns:dc="http://purl.org/dc/elements/1.1/"
   xmlns:cc="http://creativecommons.org/ns#"
   xmlns:rdf="http://www.w3.org/1999/02/22-rdf-syntax-ns#"
   xmlns:svg="http://www.w3.org/2000/svg"
   xmlns="http://www.w3.org/2000/svg"
   xmlns:sodipodi="http://sodipodi.sourceforge.net/DTD/sodipodi-0.dtd"
   xmlns:inkscape="http://www.inkscape.org/namespaces/inkscape"
   width="10.78125"
   height="21.577747"
   id="svg2"
   version="1.1"
   inkscape:version="0.48.5 r10040"
   sodipodi:docname="Новый документ 1">
  <defs
     id="defs4" />
  <sodipodi:namedview
     id="base"
     pagecolor="#ffffff"
     bordercolor="#666666"
     borderopacity="1.0"
     inkscape:pageopacity="0.0"
     inkscape:pageshadow="2"
     inkscape:zoom="11.2"
     inkscape:cx="48.845074"
     inkscape:cy="2.9452071"
     inkscape:document-units="px"
     inkscape:current-layer="layer1"
     showgrid="false"
     fit-margin-top="0"
     fit-margin-left="0"
     fit-margin-right="0"
     fit-margin-bottom="0"
     inkscape:window-width="2560"
     inkscape:window-height="1033"
     inkscape:window-x="-4"
     inkscape:window-y="-4"
     inkscape:window-maximized="1" />
  <metadata
     id="metadata7">
    <rdf:RDF>
      <cc:Work
         rdf:about="">
        <dc:format>image/svg+xml</dc:format>
        <dc:type
           rdf:resource="http://purl.org/dc/dcmitype/StillImage" />
        <dc:title></dc:title>
      </cc:Work>
    </rdf:RDF>
  </metadata>
  <g
     inkscape:label="Layer 1"
     inkscape:groupmode="layer"
     id="layer1"
     transform="translate(-10.727683,-9.2276796)">
    <path
       style="fill:#ffffff;fill-opacity:1;stroke:none"
       d="m 19.008933,9.2276796 c -1.38071,0 -2.5,1.1192904 -2.5,2.5000004 0,1.38071 1.11929,2.5 2.5,2.5 1.38071,0 2.5,-1.11929 2.5,-2.5 0,-1.38071 -1.11929,-2.5000004 -2.5,-2.5000004 z m -1.84375,6.6875004 c -0.49805,-0.003 -0.99554,0.0491 -1.375,0.0937 -1.51785,0.17857 -4.16965,2.96429 -5.0625,4.125 5.17857,-3.21429 5.0759,-1.77678 4.09375,0.1875 -0.88208,1.76416 -2.38833,4.05558 -3.125,6.78125 -0.89285,3.30357 0.92549,4.06291 2.84375,3.5625 2.05358,-0.53571 4.03571,-2.15179 5.375,-4.5625 -2.58928,2.05358 -4.1875,1.69196 -4.1875,0.53125 0,-1.16072 1.97673,-4.02994 3.28125,-7.21875 1.20536,-2.94643 -0.34961,-3.49163 -1.84375,-3.5 z"
       id="path2996"
       inkscape:connector-curvature="0" />
  </g>
</svg>
