<?xml version="1.0" encoding="UTF-8" standalone="no"?>
<!-- Created with Inkscape (http://www.inkscape.org/) -->

<svg
   xmlns:dc="http://purl.org/dc/elements/1.1/"
   xmlns:cc="http://creativecommons.org/ns#"
   xmlns:rdf="http://www.w3.org/1999/02/22-rdf-syntax-ns#"
   xmlns:svg="http://www.w3.org/2000/svg"
   xmlns="http://www.w3.org/2000/svg"
   xmlns:sodipodi="http://sodipodi.sourceforge.net/DTD/sodipodi-0.dtd"
   xmlns:inkscape="http://www.inkscape.org/namespaces/inkscape"
   id="svg2"
   version="1.1"
   inkscape:version="0.48.5 r10040"
   width="21.8125"
   height="22.0625"
   sodipodi:docname="i.png">
  <metadata
     id="metadata8">
    <rdf:RDF>
      <cc:Work
         rdf:about="">
        <dc:format>image/svg+xml</dc:format>
        <dc:type
           rdf:resource="http://purl.org/dc/dcmitype/StillImage" />
        <dc:title></dc:title>
      </cc:Work>
    </rdf:RDF>
  </metadata>
  <defs
     id="defs6" />
  <sodipodi:namedview
     pagecolor="#ffffff"
     bordercolor="#666666"
     borderopacity="1"
     objecttolerance="10"
     gridtolerance="10"
     guidetolerance="10"
     inkscape:pageopacity="0"
     inkscape:pageshadow="2"
     inkscape:window-width="2560"
     inkscape:window-height="1033"
     id="namedview4"
     showgrid="false"
     fit-margin-top="0"
     fit-margin-left="0"
     fit-margin-right="0"
     fit-margin-bottom="0"
     inkscape:zoom="21.454545"
     inkscape:cx="27.468995"
     inkscape:cy="13.659458"
     inkscape:window-x="-4"
     inkscape:window-y="-4"
     inkscape:window-maximized="1"
     inkscape:current-layer="svg2" />
  <path
     style="fill:#ffffff;fill-opacity:1;stroke:none"
     d="M 3.5,0 0,3.5 3.5,7 7,3.5 3.5,0 z m 7.40625,0 -3.5,3.5 3.5,3.5 3.5,-3.5 -3.5,-3.5 z m 7.40625,0 -3.5,3.5 3.5,3.5 3.5,-3.5 -3.5,-3.5 z M 3.5,7.53125 l -3.5,3.5 3.5,3.5 3.5,-3.5 -3.5,-3.5 z m 7.40625,0 -3.5,3.5 3.5,3.5 3.5,-3.5 -3.5,-3.5 z m 7.40625,0 -3.5,3.5 3.5,3.5 3.5,-3.5 -3.5,-3.5 z M 3.5,15.0625 l -3.5,3.5 3.5,3.5 3.5,-3.5 -3.5,-3.5 z m 7.40625,0 -3.5,3.5 3.5,3.5 3.5,-3.5 -3.5,-3.5 z m 7.40625,0 -3.5,3.5 3.5,3.5 3.5,-3.5 -3.5,-3.5 z"
     id="rect2987"
     inkscape:connector-curvature="0" />
</svg>
