<?xml version="1.0" encoding="UTF-8" standalone="no"?>
<!-- Created with Inkscape (http://www.inkscape.org/) -->

<svg
   xmlns:dc="http://purl.org/dc/elements/1.1/"
   xmlns:cc="http://creativecommons.org/ns#"
   xmlns:rdf="http://www.w3.org/1999/02/22-rdf-syntax-ns#"
   xmlns:svg="http://www.w3.org/2000/svg"
   xmlns="http://www.w3.org/2000/svg"
   version="1.1"
   width="106.43501"
   height="45.028999"
   viewBox="0 0 106.435 45.028998"
   id="Layer_1"
   xml:space="preserve"><metadata
   id="metadata289"><rdf:RDF><cc:Work
       rdf:about=""><dc:format>image/svg+xml</dc:format><dc:type
         rdf:resource="http://purl.org/dc/dcmitype/StillImage" /><dc:title></dc:title></cc:Work></rdf:RDF></metadata><defs
   id="defs287" />
<g
   transform="translate(-972,-1126.061)"
   id="g3">
	<polygon
   points="996.756,1151.921 996.685,1127.184 996.685,1127.184 972,1127.106 972,1151.914 977.131,1158.514 991.886,1158.514 "
   id="polygon5"
   style="fill:#005baa;fill-rule:evenodd" />
	<polygon
   points="972.467,1128.528 972.74,1128.528 972.74,1130.383 972.467,1130.383 972.467,1128.528 "
   id="polygon7"
   style="fill:#ffffff;fill-rule:evenodd" />
	<polygon
   points="972.466,1130.742 972.739,1130.742 972.739,1132.596 972.466,1132.596 972.466,1130.742 "
   id="polygon9"
   style="fill:#ffffff;fill-rule:evenodd" />
	<polygon
   points="972.469,1132.961 972.741,1132.961 972.741,1134.816 972.469,1134.816 972.469,1132.961 "
   id="polygon11"
   style="fill:#ffffff;fill-rule:evenodd" />
	<polygon
   points="972.468,1135.175 972.741,1135.175 972.741,1137.029 972.468,1137.029 972.468,1135.175 "
   id="polygon13"
   style="fill:#ffffff;fill-rule:evenodd" />
	<polygon
   points="972.47,1137.394 972.743,1137.394 972.743,1139.248 972.47,1139.248 972.47,1137.394 "
   id="polygon15"
   style="fill:#ffffff;fill-rule:evenodd" />
	<polygon
   points="972.47,1139.607 972.742,1139.607 972.742,1141.461 972.47,1141.461 972.47,1139.607 "
   id="polygon17"
   style="fill:#ffffff;fill-rule:evenodd" />
	<polygon
   points="972.472,1141.827 972.745,1141.827 972.745,1143.681 972.472,1143.681 972.472,1141.827 "
   id="polygon19"
   style="fill:#ffffff;fill-rule:evenodd" />
	<polygon
   points="972.471,1144.04 972.744,1144.04 972.744,1145.894 972.471,1145.894 972.471,1144.04 "
   id="polygon21"
   style="fill:#ffffff;fill-rule:evenodd" />
	<polygon
   points="972.47,1146.27 972.742,1146.27 972.742,1148.125 972.47,1148.125 972.47,1146.27 "
   id="polygon23"
   style="fill:#ffffff;fill-rule:evenodd" />
	<polygon
   points="972.472,1148.49 972.745,1148.49 972.745,1150.343 972.472,1150.343 972.472,1148.49 "
   id="polygon25"
   style="fill:#ffffff;fill-rule:evenodd" />
	<polygon
   points="995.945,1128.345 996.218,1128.345 996.218,1130.199 995.945,1130.199 995.945,1128.345 "
   id="polygon27"
   style="fill:#ffffff;fill-rule:evenodd" />
	<polygon
   points="995.963,1130.625 996.236,1130.625 996.236,1132.479 995.963,1132.479 995.963,1130.625 "
   id="polygon29"
   style="fill:#ffffff;fill-rule:evenodd" />
	<polygon
   points="995.955,1133.035 996.228,1133.035 996.228,1134.889 995.955,1134.889 995.955,1133.035 "
   id="polygon31"
   style="fill:#ffffff;fill-rule:evenodd" />
	<polygon
   points="995.955,1135.248 996.228,1135.248 996.228,1137.102 995.955,1137.102 995.955,1135.248 "
   id="polygon33"
   style="fill:#ffffff;fill-rule:evenodd" />
	<polygon
   points="995.957,1137.466 996.229,1137.466 996.229,1139.321 995.957,1139.321 995.957,1137.466 "
   id="polygon35"
   style="fill:#ffffff;fill-rule:evenodd" />
	<polygon
   points="995.956,1139.68 996.229,1139.68 996.229,1141.535 995.956,1141.535 995.956,1139.68 "
   id="polygon37"
   style="fill:#ffffff;fill-rule:evenodd" />
	<polygon
   points="995.958,1141.9 996.231,1141.9 996.231,1143.754 995.958,1143.754 995.958,1141.9 "
   id="polygon39"
   style="fill:#ffffff;fill-rule:evenodd" />
	<polygon
   points="995.958,1144.113 996.23,1144.113 996.23,1145.967 995.958,1145.967 995.958,1144.113 "
   id="polygon41"
   style="fill:#ffffff;fill-rule:evenodd" />
	<polygon
   points="995.956,1146.343 996.229,1146.343 996.229,1148.197 995.956,1148.197 995.956,1146.343 "
   id="polygon43"
   style="fill:#ffffff;fill-rule:evenodd" />
	<polygon
   points="995.958,1148.563 996.231,1148.563 996.231,1150.417 995.958,1150.417 995.958,1148.563 "
   id="polygon45"
   style="fill:#ffffff;fill-rule:evenodd" />
	<polygon
   points="973.778,1152.795 973.563,1152.965 974.705,1154.425 974.921,1154.256 973.778,1152.795 "
   id="polygon47"
   style="fill:#ffffff;fill-rule:evenodd" />
	<polygon
   points="975.141,1154.547 974.924,1154.716 976.067,1156.177 976.283,1156.007 975.141,1154.547 "
   id="polygon49"
   style="fill:#ffffff;fill-rule:evenodd" />
	<polygon
   points="972.486,1151.44 973.357,1152.694 973.357,1152.694 973.583,1152.537 972.743,1151.327 972.742,1150.722 972.49,1150.721 "
   id="polygon51"
   style="fill:#ffffff;fill-rule:evenodd" />
	<polygon
   points="976.31,1156.483 977.439,1157.972 977.439,1157.972 977.638,1157.974 977.64,1157.702 977.565,1157.699 976.53,1156.317 "
   id="polygon53"
   style="fill:#ffffff;fill-rule:evenodd" />
	<polygon
   points="980.301,1157.966 980.301,1157.693 982.155,1157.693 982.155,1157.966 980.301,1157.966 "
   id="polygon55"
   style="fill:#ffffff;fill-rule:evenodd" />
	<polygon
   points="982.521,1157.963 982.521,1157.691 984.375,1157.691 984.375,1157.963 982.521,1157.963 "
   id="polygon57"
   style="fill:#ffffff;fill-rule:evenodd" />
	<polygon
   points="984.734,1157.964 984.734,1157.692 986.588,1157.692 986.588,1157.964 984.734,1157.964 "
   id="polygon59"
   style="fill:#ffffff;fill-rule:evenodd" />
	<polygon
   points="986.964,1157.966 986.964,1157.693 988.818,1157.693 988.818,1157.966 986.964,1157.966 "
   id="polygon61"
   style="fill:#ffffff;fill-rule:evenodd" />
	<polygon
   points="989.184,1157.963 989.184,1157.691 991.038,1157.691 991.038,1157.963 989.184,1157.963 "
   id="polygon63"
   style="fill:#ffffff;fill-rule:evenodd" />
	<polygon
   points="978.024,1157.97 978.024,1157.697 979.879,1157.697 979.879,1157.97 978.024,1157.97 "
   id="polygon65"
   style="fill:#ffffff;fill-rule:evenodd" />
	<polygon
   points="992.722,1156.291 992.502,1156.125 993.615,1154.643 993.834,1154.807 992.722,1156.291 "
   id="polygon67"
   style="fill:#ffffff;fill-rule:evenodd" />
	<polygon
   points="994.048,1154.512 993.829,1154.347 994.941,1152.864 995.161,1153.029 994.048,1154.512 "
   id="polygon69"
   style="fill:#ffffff;fill-rule:evenodd" />
	<polygon
   points="992.495,1156.591 991.502,1157.916 991.502,1157.916 991.26,1157.909 991.268,1157.633 991.378,1157.637 992.315,1156.372 "
   id="polygon71"
   style="fill:#ffffff;fill-rule:evenodd" />
	<polygon
   points="996.199,1151.458 995.328,1152.71 995.328,1152.71 995.103,1152.554 995.943,1151.344 995.943,1150.739 996.195,1150.739 "
   id="polygon73"
   style="fill:#ffffff;fill-rule:evenodd" />
	<polygon
   points="972.74,1127.917 972.744,1128.118 972.744,1128.118 972.466,1128.117 972.467,1127.646 974.329,1127.645 974.329,1127.917 "
   id="polygon75"
   style="fill:#ffffff;fill-rule:evenodd" />
	<polygon
   points="974.688,1127.918 974.688,1127.645 976.542,1127.645 976.542,1127.918 974.688,1127.918 "
   id="polygon77"
   style="fill:#ffffff;fill-rule:evenodd" />
	<polygon
   points="976.908,1127.916 976.908,1127.643 978.763,1127.643 978.763,1127.916 976.908,1127.916 "
   id="polygon79"
   style="fill:#ffffff;fill-rule:evenodd" />
	<polygon
   points="979.122,1127.917 979.122,1127.644 980.976,1127.644 980.976,1127.917 979.122,1127.917 "
   id="polygon81"
   style="fill:#ffffff;fill-rule:evenodd" />
	<polygon
   points="981.34,1127.915 981.34,1127.641 983.194,1127.641 983.194,1127.915 981.34,1127.915 "
   id="polygon83"
   style="fill:#ffffff;fill-rule:evenodd" />
	<polygon
   points="983.554,1127.915 983.554,1127.642 985.408,1127.642 985.408,1127.915 983.554,1127.915 "
   id="polygon85"
   style="fill:#ffffff;fill-rule:evenodd" />
	<polygon
   points="985.773,1127.913 985.773,1127.64 987.627,1127.64 987.627,1127.913 985.773,1127.913 "
   id="polygon87"
   style="fill:#ffffff;fill-rule:evenodd" />
	<polygon
   points="987.987,1127.914 987.987,1127.641 989.841,1127.641 989.841,1127.914 987.987,1127.914 "
   id="polygon89"
   style="fill:#ffffff;fill-rule:evenodd" />
	<polygon
   points="990.217,1127.915 990.217,1127.642 992.071,1127.642 992.071,1127.915 990.217,1127.915 "
   id="polygon91"
   style="fill:#ffffff;fill-rule:evenodd" />
	<polygon
   points="992.436,1127.913 992.436,1127.64 994.291,1127.64 994.291,1127.913 992.436,1127.913 "
   id="polygon93"
   style="fill:#ffffff;fill-rule:evenodd" />
	<polygon
   points="995.943,1127.913 994.679,1127.913 994.679,1127.913 994.679,1127.64 996.218,1127.64 996.217,1128.021 995.945,1128.02 "
   id="polygon95"
   style="fill:#ffffff;fill-rule:evenodd" />
	<path
   d="m 985.009,1130.279 c 1.419,0.29 2.42,1.485 2.529,2.86 l -6.323,-0.055 c 0.011,-0.109 0.027,-0.219 0.049,-0.329 0.35,-1.717 2.027,-2.826 3.745,-2.476 l 0,0 z m 2.476,3.745 c -0.35,1.718 -2.027,2.827 -3.745,2.477 -1.468,-0.3 -2.488,-1.568 -2.536,-3.003 l 6.339,0.035 c -0.008,0.162 -0.024,0.326 -0.058,0.491 l 0,0 z m -8.994,-0.542 2.312,0.013 c 0.046,1.624 1.198,3.062 2.857,3.399 1.936,0.395 3.824,-0.854 4.219,-2.79 0.395,-1.935 -0.854,-3.824 -2.79,-4.219 -1.936,-0.395 -3.824,0.854 -4.219,2.79 -0.027,0.133 -0.045,0.267 -0.057,0.399 l -2.319,-0.013 -0.003,0.421 0,0 z m 15.431,6.554 c -0.101,0.024 -0.236,0.049 -0.345,0.05 l -0.014,-3.005 c 0.683,-0.01 1.276,0.597 1.424,1.233 0.024,0.102 0.037,0.207 0.038,0.317 0.007,0.681 -0.466,1.257 -1.103,1.405 l 0,0 z m -4.809,1.18 -1.025,0.01 -0.018,-4.154 5.076,0.013 0.014,3.096 -4.047,1.04 0,0 z m -0.037,12.493 -4.463,0.041 0.007,-6.639 -0.457,0 0.028,6.644 -4.463,-0.026 0.039,-12.083 9.231,-0.017 0.078,12.082 0,0 z m -0.94,0.906 c 0.208,0.207 0.361,0.468 0.438,0.76 l -3.225,0.01 c 0.074,-0.292 0.22,-0.545 0.427,-0.753 0.3,-0.305 0.714,-0.484 1.175,-0.488 0.463,0 0.881,0.172 1.185,0.472 l 0,0 z m -5.105,0.021 c 0.207,0.208 0.354,0.46 0.429,0.753 l -3.225,0 c 0.077,-0.292 0.228,-0.554 0.436,-0.761 0.304,-0.301 0.721,-0.477 1.183,-0.477 0.461,0 0.876,0.181 1.177,0.484 l 0,0 z m -7.43,-14.429 0.003,-3.096 5.076,-0.029 -0.004,4.154 -1.025,0 -4.05,-1.027 0,0 z m -0.762,-0.138 c -0.637,-0.146 -1.113,-0.721 -1.108,-1.402 10e-4,-0.11 0.013,-0.215 0.037,-0.317 0.146,-0.636 0.738,-1.241 1.42,-1.238 l -0.003,3.005 c -0.11,0 -0.246,-0.025 -0.346,-0.048 l 0,0 z m 7.127,-2.992 -0.011,4.167 -0.865,0 0.007,-4.162 0.869,0 0,0 z m 2.425,1.476 c 1.347,-0.012 1.835,-0.738 1.983,-0.93 l 0.026,3.614 -4.035,0.01 0.014,-3.614 c 0.216,0.213 0.839,0.933 2.012,0.922 l 0,0 z m 3.263,-1.487 0.02,4.162 -0.865,0.01 -0.024,-4.167 0.869,0 0,0 z m 7.781,1.561 c -10e-4,-0.141 -0.018,-0.277 -0.048,-0.408 -0.189,-0.81 -0.966,-1.547 -1.831,-1.556 0,0 -7.181,-0.027 -7.181,-0.023 -0.016,0.755 -1.063,1.511 -2.004,1.513 -0.916,0 -1.989,-0.771 -2.009,-1.501 l -7.167,0.043 c -0.865,0.011 -1.64,0.75 -1.826,1.562 -0.03,0.131 -0.046,0.268 -0.046,0.407 -0.005,0.877 0.604,1.614 1.425,1.804 0.131,0.03 0.297,0.058 0.437,0.059 l 4.176,1.058 -0.056,12.549 1.337,0.01 c -0.52,0.366 -0.861,0.963 -0.869,1.65 l -0.003,0.01 4.16,0.013 -0.002,0 c -0.002,-0.688 -0.299,-1.264 -0.816,-1.634 l 2.586,-0.01 c -0.516,0.371 -0.81,0.948 -0.811,1.636 l -10e-4,0 4.16,-0.025 -0.004,-0.01 c -0.009,-0.688 -0.353,-1.284 -0.874,-1.648 l 1.337,-0.01 -0.085,-12.552 4.161,-1.068 c 0.139,0 0.306,-0.029 0.437,-0.06 0.817,-0.193 1.425,-0.932 1.417,-1.809 l 0,0 z"
   id="path97"
   style="fill:#ffffff;fill-rule:evenodd" />
	<polygon
   points="984.62,1147.111 984.613,1153.75 989.076,1153.709 988.999,1141.626 988.999,1141.626 979.768,1141.644 979.729,1153.727 984.191,1153.753 984.163,1147.109 "
   id="polygon99"
   style="fill:#a7a9ac;fill-rule:evenodd" />
	<path
   d="m 982.365,1141.246 4.035,-0.01 -0.025,-3.614 c -0.148,0.191 -0.636,0.918 -1.983,0.93 -1.173,0.011 -1.796,-0.709 -2.012,-0.921 l -0.015,3.614 0,0 z"
   id="path101"
   style="fill:#a7a9ac;fill-rule:evenodd" />
	<polygon
   points="988.071,1137.067 988.071,1137.067 988.088,1141.222 989.113,1141.216 993.161,1140.177 993.147,1137.081 "
   id="polygon103"
   style="fill:#a7a9ac;fill-rule:evenodd" />
	<polygon
   points="980.676,1141.236 980.676,1141.236 980.68,1137.082 975.604,1137.111 975.601,1140.207 979.651,1141.234 "
   id="polygon105"
   style="fill:#a7a9ac;fill-rule:evenodd" />
	<polygon
   points="981.097,1137.079 981.09,1141.241 981.955,1141.245 981.966,1137.077 981.097,1137.079 "
   id="polygon107"
   style="fill:#a7a9ac;fill-rule:evenodd" />
	
		<path
   d="m 975.184,1140.117 0.004,-3.005 c -0.683,0 -1.274,0.602 -1.42,1.238 -0.024,0.102 -0.036,0.208 -0.037,0.317 -0.004,0.682 0.471,1.256 1.108,1.402 0.1,0.023 0.236,0.048 0.345,0.048 l 0,0 z"
   id="path109"
   style="fill:#a7a9ac;fill-rule:evenodd;stroke:#a7a9ac;stroke-width:0.21600001;stroke-miterlimit:22.92560005" />
	<path
   d="m 983.74,1136.5 c 1.718,0.35 3.395,-0.759 3.745,-2.477 0.034,-0.165 0.049,-0.329 0.058,-0.492 l -6.339,-0.035 c 0.048,1.436 1.068,2.705 2.536,3.004 l 0,0 z"
   id="path111"
   style="fill:#a7a9ac;fill-rule:evenodd" />
	<polygon
   points="986.785,1137.067 986.81,1141.234 987.674,1141.228 987.654,1137.066 986.785,1137.067 "
   id="polygon113"
   style="fill:#a7a9ac;fill-rule:evenodd" />
	<path
   d="m 981.214,1133.084 6.323,0.055 c -0.108,-1.375 -1.109,-2.571 -2.529,-2.86 -1.718,-0.35 -3.395,0.759 -3.745,2.477 -0.022,0.11 -0.038,0.219 -0.049,0.328 l 0,0 z"
   id="path115"
   style="fill:#ed1b2f;fill-rule:evenodd" />
	<path
   d="m 983.031,1154.636 c -0.301,-0.304 -0.716,-0.481 -1.177,-0.483 -0.462,0 -0.879,0.176 -1.183,0.477 -0.208,0.207 -0.359,0.469 -0.436,0.761 l 3.225,-10e-4 c -0.075,-0.294 -0.222,-0.546 -0.429,-0.754 l 0,0 z"
   id="path117"
   style="fill:#a7a9ac;fill-rule:evenodd" />
	<path
   d="m 985.776,1154.629 c -0.207,0.209 -0.353,0.462 -0.427,0.754 l 3.225,-0.01 c -0.077,-0.292 -0.229,-0.553 -0.438,-0.76 -0.305,-0.3 -0.722,-0.474 -1.185,-0.473 -0.46,0 -0.875,0.185 -1.175,0.488 l 0,0 z"
   id="path119"
   style="fill:#a7a9ac;fill-rule:evenodd" />
	<path
   d="m 993.563,1137.08 0.014,3.005 c 0.108,0 0.244,-0.025 0.345,-0.05 0.637,-0.148 1.11,-0.724 1.104,-1.405 0,-0.11 -0.013,-0.216 -0.038,-0.317 -0.148,-0.636 -0.742,-1.239 -1.425,-1.233 l 0,0 z"
   id="path121"
   style="fill:#a7a9ac;fill-rule:evenodd" />
	<path
   d="m 1002.924,1130.36 c -0.208,0 -0.397,-0.031 -0.57,-0.094 -0.172,-0.063 -0.322,-0.16 -0.448,-0.291 -0.125,-0.131 -0.223,-0.296 -0.293,-0.495 -0.07,-0.199 -0.105,-0.433 -0.105,-0.702 0,-0.29 0.038,-0.536 0.114,-0.739 0.077,-0.203 0.179,-0.37 0.309,-0.501 0.125,-0.126 0.272,-0.219 0.442,-0.279 0.169,-0.06 0.346,-0.09 0.529,-0.09 0.139,0 0.277,0.019 0.416,0.058 0.139,0.038 0.278,0.1 0.418,0.185 v 0.809 h -0.101 c -0.031,-0.036 -0.07,-0.075 -0.115,-0.119 -0.045,-0.043 -0.095,-0.083 -0.148,-0.119 -0.057,-0.038 -0.121,-0.069 -0.193,-0.096 -0.072,-0.026 -0.152,-0.039 -0.24,-0.039 -0.2,0 -0.354,0.084 -0.464,0.252 -0.109,0.167 -0.164,0.394 -0.164,0.678 0,0.303 0.058,0.53 0.175,0.679 0.118,0.149 0.273,0.224 0.467,0.224 0.099,0 0.185,-0.013 0.26,-0.041 0.075,-0.027 0.139,-0.06 0.192,-0.097 0.052,-0.038 0.097,-0.077 0.134,-0.117 0.037,-0.041 0.069,-0.077 0.096,-0.109 h 0.101 v 0.809 c -0.044,0.023 -0.097,0.05 -0.156,0.081 -0.059,0.03 -0.119,0.056 -0.18,0.075 -0.076,0.025 -0.147,0.045 -0.214,0.058 -0.067,0.013 -0.154,0.02 -0.262,0.02 l 0,0 z"
   id="path123"
   style="fill:#005baa;fill-rule:evenodd" />
	<polygon
   points="1004.062,1130.279 1004.062,1127.251 1006.425,1127.251 1006.425,1130.279 1006.425,1130.279 1005.642,1130.279 1005.642,1127.92 1004.845,1127.92 1004.845,1130.279 "
   id="polygon125"
   style="fill:#005baa;fill-rule:evenodd" />
	<path
   d="m 1008.525,1128.376 c 0,-0.2 -0.043,-0.352 -0.116,-0.456 -0.072,-0.104 -0.183,-0.156 -0.332,-0.156 -0.152,0 -0.271,0.055 -0.357,0.164 -0.086,0.109 -0.133,0.259 -0.142,0.448 h 0.947 l 0,0 z m -0.26,1.984 c -0.474,0 -0.838,-0.136 -1.091,-0.41 -0.253,-0.273 -0.379,-0.662 -0.379,-1.167 0,-0.494 0.118,-0.889 0.354,-1.184 0.236,-0.295 0.565,-0.442 0.989,-0.442 0.385,0 0.674,0.125 0.869,0.375 0.194,0.25 0.291,0.607 0.291,1.073 v 0.34 h -1.717 c 0.01,0.14 0.032,0.257 0.074,0.352 0.042,0.094 0.097,0.169 0.166,0.226 0.067,0.055 0.146,0.095 0.235,0.12 0.09,0.024 0.188,0.036 0.293,0.036 0.091,0 0.181,-0.012 0.269,-0.036 0.088,-0.024 0.169,-0.056 0.242,-0.095 0.064,-0.035 0.123,-0.071 0.178,-0.111 0.055,-0.039 0.099,-0.074 0.133,-0.104 h 0.083 v 0.779 c -0.064,0.031 -0.123,0.059 -0.176,0.085 -0.053,0.026 -0.125,0.052 -0.218,0.08 -0.085,0.027 -0.173,0.048 -0.263,0.063 -0.092,0.013 -0.202,0.02 -0.332,0.02 l 0,0 z"
   id="path127"
   style="fill:#005baa;fill-rule:evenodd" />
	<polygon
   points="1010.437,1127.251 1010.437,1129.613 1011.229,1129.613 1011.229,1127.251 1012.012,1127.251 1012.012,1129.613 1012.261,1129.613 1012.261,1131.029 1012.261,1131.029 1011.565,1131.029 1011.565,1130.279 1009.654,1130.279 1009.654,1127.251 "
   id="polygon129"
   style="fill:#005baa;fill-rule:evenodd" />
	<path
   d="m 1014.222,1128.772 c 0,-0.18 -0.012,-0.329 -0.037,-0.449 -0.024,-0.12 -0.059,-0.215 -0.102,-0.287 -0.046,-0.076 -0.098,-0.128 -0.156,-0.158 -0.058,-0.03 -0.125,-0.044 -0.199,-0.044 -0.07,0 -0.134,0.013 -0.19,0.039 -0.056,0.026 -0.109,0.076 -0.156,0.15 -0.045,0.07 -0.081,0.166 -0.107,0.288 -0.027,0.123 -0.04,0.276 -0.04,0.461 0,0.186 0.012,0.335 0.038,0.449 0.026,0.114 0.058,0.205 0.099,0.273 0.042,0.07 0.094,0.121 0.157,0.154 0.063,0.032 0.132,0.048 0.208,0.048 0.063,0 0.126,-0.016 0.191,-0.048 0.065,-0.033 0.116,-0.081 0.155,-0.146 0.046,-0.077 0.082,-0.17 0.105,-0.279 0.023,-0.109 0.034,-0.259 0.034,-0.451 l 0,0 z m 0.803,0 c 0,0.498 -0.113,0.89 -0.339,1.176 -0.226,0.287 -0.546,0.43 -0.959,0.43 -0.41,0 -0.729,-0.143 -0.957,-0.43 -0.228,-0.287 -0.341,-0.679 -0.341,-1.176 0,-0.504 0.114,-0.897 0.341,-1.183 0.227,-0.285 0.546,-0.427 0.957,-0.427 0.412,0 0.731,0.144 0.958,0.43 0.227,0.287 0.34,0.68 0.34,1.18 l 0,0 z"
   id="path131"
   style="fill:#005baa;fill-rule:evenodd" />
	<path
   d="m 1016.936,1129.6 v -1.683 h -0.553 c -0.025,0.336 -0.068,0.647 -0.129,0.934 -0.06,0.287 -0.133,0.537 -0.218,0.749 h 0.9 l 0,0 z m 1.026,1.429 h -0.696 v -0.761 h -1.455 v 0.761 h -0.696 v -1.429 h 0.181 c 0.113,-0.284 0.204,-0.631 0.272,-1.041 0.068,-0.41 0.102,-0.846 0.102,-1.308 h 2.043 v 2.349 h 0.249 v 1.429 l 0,0 z"
   id="path133"
   style="fill:#005baa;fill-rule:evenodd" />
	<path
   d="m 1019.861,1128.376 c 0,-0.2 -0.043,-0.352 -0.115,-0.456 -0.073,-0.104 -0.183,-0.156 -0.332,-0.156 -0.152,0 -0.271,0.055 -0.357,0.164 -0.086,0.109 -0.133,0.259 -0.143,0.448 h 0.947 l 0,0 z m -0.259,1.984 c -0.474,0 -0.838,-0.136 -1.091,-0.41 -0.253,-0.273 -0.379,-0.662 -0.379,-1.167 0,-0.494 0.118,-0.889 0.354,-1.184 0.235,-0.295 0.565,-0.442 0.989,-0.442 0.385,0 0.674,0.125 0.868,0.375 0.194,0.25 0.291,0.607 0.291,1.073 v 0.34 h -1.716 c 0.01,0.14 0.032,0.257 0.074,0.352 0.042,0.095 0.097,0.169 0.166,0.226 0.067,0.055 0.146,0.095 0.235,0.12 0.089,0.025 0.188,0.036 0.293,0.036 0.091,0 0.18,-0.012 0.269,-0.036 0.088,-0.024 0.168,-0.056 0.242,-0.095 0.064,-0.035 0.124,-0.071 0.178,-0.111 0.055,-0.039 0.099,-0.074 0.133,-0.104 h 0.083 v 0.779 c -0.064,0.031 -0.123,0.059 -0.176,0.085 -0.053,0.026 -0.125,0.052 -0.218,0.08 -0.085,0.027 -0.173,0.048 -0.263,0.063 -0.093,0.013 -0.203,0.02 -0.332,0.02 l 0,0 z"
   id="path135"
   style="fill:#005baa;fill-rule:evenodd" />
	<path
   d="m 1024.736,1130.279 h -0.882 l -0.555,-1.188 h -0.19 v 1.188 h -0.779 v -1.188 h -0.19 l -0.566,1.188 h -0.861 l 0.74,-1.528 c -0.033,-0.027 -0.062,-0.066 -0.086,-0.12 -0.024,-0.053 -0.05,-0.122 -0.077,-0.209 -0.037,-0.122 -0.08,-0.211 -0.127,-0.267 -0.048,-0.056 -0.108,-0.083 -0.182,-0.083 h -0.167 v -0.82 c 0.027,0 0.07,-10e-4 0.13,0 0.06,-10e-4 0.121,0 0.184,0 0.168,0 0.31,0.038 0.423,0.112 0.113,0.075 0.205,0.208 0.275,0.4 0.015,0.041 0.034,0.097 0.057,0.166 0.023,0.069 0.044,0.132 0.064,0.188 0.057,0.15 0.107,0.25 0.151,0.299 0.044,0.049 0.122,0.073 0.234,0.073 v -1.232 h 0.779 v 1.232 c 0.112,0 0.189,-0.026 0.232,-0.072 0.043,-0.046 0.094,-0.146 0.152,-0.3 0.015,-0.043 0.035,-0.102 0.06,-0.174 0.024,-0.073 0.045,-0.133 0.062,-0.18 0.07,-0.19 0.163,-0.323 0.277,-0.399 0.115,-0.076 0.255,-0.113 0.42,-0.113 0.057,0 0.118,10e-4 0.183,0 0.065,0 0.108,0 0.131,0 v 0.809 h -0.168 c -0.067,0 -0.125,0.024 -0.174,0.073 -0.048,0.048 -0.092,0.13 -0.131,0.245 -0.023,0.077 -0.048,0.146 -0.073,0.208 -0.024,0.061 -0.056,0.11 -0.094,0.148 l 0.748,1.544 0,0 z"
   id="path137"
   style="fill:#005baa;fill-rule:evenodd" />
	<path
   d="m 1026.543,1129.6 v -1.683 h -0.553 c -0.025,0.336 -0.068,0.647 -0.128,0.934 -0.061,0.287 -0.133,0.537 -0.218,0.749 h 0.899 l 0,0 z m 1.027,1.429 h -0.696 v -0.761 h -1.454 v 0.761 h -0.696 v -1.429 h 0.182 c 0.113,-0.284 0.204,-0.631 0.272,-1.041 0.067,-0.41 0.102,-0.846 0.102,-1.308 h 2.043 v 2.349 h 0.248 v 1.429 l -10e-4,0 z"
   id="path139"
   style="fill:#005baa;fill-rule:evenodd" />
	<path
   d="m 1029.308,1129.489 v -0.631 c -0.133,0.016 -0.24,0.03 -0.321,0.042 -0.083,0.011 -0.163,0.035 -0.242,0.069 -0.068,0.028 -0.122,0.072 -0.16,0.13 -0.038,0.059 -0.057,0.136 -0.057,0.233 0,0.142 0.031,0.24 0.095,0.292 0.064,0.052 0.157,0.08 0.28,0.08 0.069,0 0.14,-0.019 0.211,-0.057 0.071,-0.038 0.136,-0.089 0.194,-0.158 l 0,0 z m 0,0.469 c -0.054,0.054 -0.102,0.103 -0.144,0.146 -0.043,0.043 -0.1,0.086 -0.172,0.129 -0.07,0.042 -0.139,0.073 -0.204,0.094 -0.066,0.021 -0.159,0.032 -0.279,0.032 -0.222,0 -0.407,-0.09 -0.554,-0.27 -0.147,-0.18 -0.221,-0.406 -0.221,-0.679 0,-0.225 0.038,-0.406 0.112,-0.544 0.075,-0.139 0.183,-0.248 0.322,-0.329 0.142,-0.083 0.312,-0.14 0.508,-0.173 0.197,-0.032 0.409,-0.057 0.636,-0.075 v -0.016 c 0,-0.167 -0.051,-0.283 -0.153,-0.347 -0.103,-0.063 -0.256,-0.095 -0.46,-0.095 -0.092,0 -0.201,0.02 -0.324,0.06 -0.124,0.041 -0.245,0.092 -0.363,0.155 h -0.066 v -0.73 c 0.077,-0.027 0.203,-0.059 0.376,-0.096 0.173,-0.037 0.348,-0.055 0.523,-0.055 0.433,0 0.748,0.087 0.945,0.26 0.198,0.174 0.297,0.438 0.297,0.794 v 2.06 h -0.779 v -0.321 l 0,0 z"
   id="path141"
   style="fill:#005baa;fill-rule:evenodd" />
	<path
   d="m 1033.883,1130.36 c -0.207,0 -0.396,-0.031 -0.569,-0.094 -0.172,-0.063 -0.321,-0.16 -0.448,-0.291 -0.125,-0.131 -0.223,-0.296 -0.293,-0.495 -0.07,-0.199 -0.105,-0.433 -0.105,-0.702 0,-0.29 0.038,-0.536 0.114,-0.739 0.076,-0.203 0.179,-0.37 0.309,-0.501 0.126,-0.126 0.273,-0.219 0.442,-0.279 0.17,-0.06 0.346,-0.09 0.529,-0.09 0.139,0 0.277,0.019 0.416,0.058 0.139,0.038 0.278,0.1 0.418,0.185 v 0.809 h -0.101 c -0.031,-0.036 -0.069,-0.075 -0.114,-0.119 -0.046,-0.043 -0.096,-0.083 -0.149,-0.119 -0.057,-0.038 -0.12,-0.069 -0.192,-0.096 -0.072,-0.026 -0.151,-0.039 -0.239,-0.039 -0.2,0 -0.355,0.084 -0.465,0.252 -0.109,0.167 -0.164,0.394 -0.164,0.678 0,0.303 0.059,0.53 0.176,0.679 0.117,0.149 0.272,0.224 0.467,0.224 0.098,0 0.185,-0.013 0.259,-0.041 0.075,-0.027 0.139,-0.06 0.192,-0.097 0.053,-0.038 0.098,-0.077 0.135,-0.117 0.037,-0.041 0.069,-0.077 0.096,-0.109 h 0.101 v 0.809 c -0.044,0.023 -0.096,0.05 -0.155,0.081 -0.059,0.03 -0.119,0.056 -0.18,0.075 -0.076,0.025 -0.147,0.045 -0.214,0.058 -0.067,0.013 -0.157,0.02 -0.266,0.02 l 0,0 z"
   id="path143"
   style="fill:#ed1b2f;fill-rule:evenodd" />
	<polygon
   points="1035.021,1127.251 1035.791,1127.251 1035.791,1128.896 1036.673,1127.251 1037.409,1127.251 1037.409,1130.279 1037.409,1130.279 1036.64,1130.279 1036.64,1128.44 1035.677,1130.279 1035.021,1130.279 "
   id="polygon145"
   style="fill:#ed1b2f;fill-rule:evenodd" />
	<path
   d="m 1039.941,1129.422 c 0,0.174 -0.033,0.323 -0.1,0.445 -0.066,0.123 -0.156,0.22 -0.268,0.294 -0.107,0.07 -0.231,0.121 -0.373,0.153 -0.141,0.033 -0.291,0.049 -0.453,0.049 -0.205,0 -0.392,-0.023 -0.557,-0.07 -0.166,-0.047 -0.32,-0.102 -0.464,-0.164 v -0.728 h 0.083 c 0.112,0.079 0.236,0.146 0.373,0.202 0.137,0.056 0.275,0.083 0.417,0.083 0.052,0 0.115,0 0.19,-0.013 0.074,-0.01 0.133,-0.024 0.174,-0.046 0.064,-0.031 0.11,-0.068 0.137,-0.112 0.027,-0.044 0.041,-0.101 0.041,-0.169 0,-0.075 -0.016,-0.135 -0.045,-0.179 -0.03,-0.044 -0.071,-0.077 -0.123,-0.099 -0.053,-0.021 -0.113,-0.035 -0.182,-0.039 -0.068,-0.01 -0.144,-0.01 -0.224,-0.01 h -0.293 v -0.604 h 0.224 c 0.057,0 0.125,-10e-4 0.206,0 0.08,0 0.145,-0.012 0.192,-0.028 0.062,-0.02 0.108,-0.048 0.144,-0.085 0.034,-0.037 0.051,-0.096 0.051,-0.177 0,-0.058 -0.015,-0.104 -0.043,-0.141 -0.029,-0.037 -0.067,-0.066 -0.115,-0.088 -0.04,-0.018 -0.088,-0.031 -0.142,-0.041 -0.054,-0.01 -0.11,-0.014 -0.17,-0.014 -0.108,0 -0.226,0.022 -0.349,0.065 -0.124,0.043 -0.237,0.097 -0.339,0.162 h -0.082 v -0.717 c 0.085,-0.032 0.217,-0.071 0.395,-0.117 0.179,-0.046 0.352,-0.069 0.521,-0.069 0.15,0 0.289,0.014 0.416,0.041 0.127,0.027 0.246,0.075 0.358,0.143 0.104,0.065 0.188,0.151 0.253,0.259 0.063,0.108 0.096,0.24 0.096,0.396 0,0.16 -0.042,0.304 -0.127,0.432 -0.085,0.128 -0.189,0.214 -0.312,0.259 v 0.024 c 0.155,0.052 0.275,0.139 0.36,0.26 0.087,0.122 0.13,0.27 0.13,0.444 l 0,0 z"
   id="path147"
   style="fill:#ed1b2f;fill-rule:evenodd" />
	<path
   d="m 1044.014,1128.743 c 0,-0.295 -0.038,-0.509 -0.113,-0.642 -0.075,-0.133 -0.193,-0.199 -0.354,-0.199 -0.069,0 -0.139,0.013 -0.209,0.041 -0.069,0.026 -0.137,0.067 -0.204,0.121 v 1.523 c 0.042,0.021 0.088,0.037 0.138,0.046 0.05,0.01 0.109,0.013 0.178,0.013 0.19,0 0.333,-0.075 0.425,-0.225 0.092,-0.15 0.138,-0.377 0.139,-0.678 l 0,0 z m 0.8,-0.019 c 0,0.483 -0.102,0.874 -0.306,1.17 -0.204,0.296 -0.455,0.445 -0.753,0.445 -0.125,0 -0.234,-0.017 -0.327,-0.051 -0.093,-0.034 -0.19,-0.087 -0.295,-0.159 v 1.262 h -0.783 v -4.139 h 0.783 v 0.315 c 0.114,-0.118 0.231,-0.215 0.351,-0.288 0.12,-0.074 0.258,-0.111 0.414,-0.111 0.291,0 0.517,0.139 0.676,0.418 0.16,0.279 0.24,0.658 0.24,1.138 l 0,0 z"
   id="path149"
   style="fill:#a7a9ac;fill-rule:evenodd" />
	<path
   d="m 1046.574,1129.489 v -0.631 c -0.133,0.016 -0.24,0.03 -0.322,0.042 -0.082,0.011 -0.163,0.035 -0.242,0.069 -0.068,0.028 -0.121,0.072 -0.159,0.13 -0.038,0.059 -0.058,0.136 -0.058,0.233 0,0.142 0.032,0.24 0.096,0.292 0.064,0.052 0.156,0.08 0.28,0.08 0.068,0 0.139,-0.019 0.211,-0.057 0.071,-0.036 0.136,-0.089 0.194,-0.158 l 0,0 z m 0,0.469 c -0.054,0.054 -0.102,0.103 -0.145,0.146 -0.043,0.043 -0.1,0.086 -0.171,0.129 -0.07,0.042 -0.139,0.073 -0.205,0.094 -0.066,0.021 -0.159,0.032 -0.278,0.032 -0.223,0 -0.407,-0.09 -0.554,-0.27 -0.147,-0.18 -0.221,-0.406 -0.221,-0.679 0,-0.225 0.037,-0.406 0.112,-0.544 0.074,-0.139 0.182,-0.248 0.322,-0.329 0.141,-0.083 0.311,-0.14 0.508,-0.173 0.196,-0.032 0.408,-0.057 0.635,-0.075 v -0.016 c 0,-0.167 -0.051,-0.283 -0.152,-0.347 -0.103,-0.063 -0.256,-0.095 -0.461,-0.095 -0.092,0 -0.2,0.02 -0.324,0.06 -0.124,0.041 -0.244,0.092 -0.362,0.155 h -0.067 v -0.73 c 0.078,-0.027 0.203,-0.059 0.376,-0.096 0.173,-0.037 0.349,-0.055 0.524,-0.055 0.433,0 0.747,0.087 0.945,0.26 0.197,0.174 0.296,0.438 0.296,0.794 v 2.06 h -0.778 v -0.321 l 0,0 z"
   id="path151"
   style="fill:#a7a9ac;fill-rule:evenodd" />
	<path
   d="m 1049.384,1129.527 c 0.048,-0.07 0.086,-0.156 0.115,-0.257 0.029,-0.101 0.044,-0.246 0.044,-0.433 0,-0.217 -0.047,-0.392 -0.139,-0.524 -0.093,-0.132 -0.215,-0.198 -0.367,-0.198 -0.07,0 -0.145,0.011 -0.222,0.032 -0.078,0.022 -0.159,0.061 -0.244,0.119 0,0.018 0,0.044 -10e-4,0.077 -10e-4,0.033 -10e-4,0.063 -10e-4,0.09 0,0.261 0.01,0.458 0.02,0.594 0.014,0.134 0.044,0.259 0.09,0.375 0.039,0.097 0.091,0.17 0.157,0.221 0.065,0.05 0.142,0.075 0.228,0.075 0.05,0 0.104,-0.013 0.165,-0.041 0.059,-0.028 0.111,-0.071 0.155,-0.13 l 0,0 z m 0.655,-1.796 c 0.096,0.117 0.171,0.261 0.227,0.433 0.055,0.172 0.082,0.385 0.082,0.64 0,0.473 -0.116,0.853 -0.35,1.139 -0.233,0.287 -0.549,0.43 -0.945,0.43 -0.436,0 -0.76,-0.17 -0.972,-0.51 -0.212,-0.34 -0.317,-0.848 -0.317,-1.525 0,-0.13 0.01,-0.261 0.016,-0.396 0.01,-0.134 0.034,-0.296 0.071,-0.486 0.031,-0.158 0.076,-0.316 0.136,-0.473 0.059,-0.157 0.129,-0.286 0.211,-0.387 0.093,-0.115 0.219,-0.214 0.379,-0.297 0.159,-0.084 0.383,-0.143 0.671,-0.177 0.136,-0.016 0.297,-0.029 0.483,-0.04 0.186,-0.011 0.335,-0.018 0.445,-0.021 v 0.709 c -0.094,0.01 -0.18,0.01 -0.258,0.015 -0.079,0 -0.169,0.011 -0.271,0.021 -0.063,0 -0.145,0.014 -0.246,0.025 -0.101,0.011 -0.188,0.026 -0.259,0.042 -0.087,0.021 -0.167,0.055 -0.241,0.1 -0.074,0.045 -0.135,0.104 -0.183,0.178 -0.035,0.056 -0.064,0.13 -0.088,0.223 -0.023,0.092 -0.04,0.206 -0.051,0.341 0.111,-0.095 0.227,-0.172 0.35,-0.229 0.122,-0.058 0.254,-0.087 0.396,-0.087 0.141,0 0.272,0.028 0.394,0.084 0.123,0.054 0.229,0.137 0.32,0.248 l 0,0 z"
   id="path153"
   style="fill:#a7a9ac;fill-rule:evenodd" />
	<path
   d="m 1052.327,1128.772 c 0,-0.18 -0.013,-0.329 -0.037,-0.449 -0.024,-0.12 -0.058,-0.215 -0.102,-0.287 -0.046,-0.076 -0.099,-0.128 -0.156,-0.158 -0.059,-0.03 -0.124,-0.044 -0.199,-0.044 -0.07,0 -0.134,0.013 -0.19,0.039 -0.056,0.026 -0.108,0.076 -0.156,0.15 -0.045,0.07 -0.081,0.166 -0.107,0.288 -0.027,0.123 -0.041,0.276 -0.041,0.461 0,0.186 0.014,0.335 0.039,0.449 0.024,0.114 0.058,0.205 0.098,0.273 0.042,0.07 0.094,0.121 0.157,0.154 0.063,0.032 0.132,0.048 0.208,0.048 0.063,0 0.126,-0.016 0.191,-0.048 0.064,-0.033 0.116,-0.081 0.155,-0.146 0.046,-0.077 0.081,-0.17 0.105,-0.279 0.023,-0.108 0.035,-0.259 0.035,-0.451 l 0,0 z m 0.804,0 c 0,0.498 -0.113,0.89 -0.34,1.176 -0.226,0.287 -0.545,0.43 -0.958,0.43 -0.411,0 -0.729,-0.143 -0.956,-0.43 -0.229,-0.287 -0.342,-0.679 -0.342,-1.176 0,-0.504 0.113,-0.897 0.342,-1.183 0.227,-0.285 0.545,-0.427 0.956,-0.427 0.411,0 0.73,0.144 0.958,0.43 0.227,0.287 0.34,0.68 0.34,1.18 l 0,0 z"
   id="path155"
   style="fill:#a7a9ac;fill-rule:evenodd" />
	<path
   d="m 1055.723,1130.279 h -0.783 v -1.04 c -0.108,0.03 -0.227,0.058 -0.353,0.082 -0.126,0.024 -0.252,0.037 -0.379,0.037 -0.113,0 -0.219,-0.018 -0.316,-0.051 -0.098,-0.034 -0.184,-0.09 -0.256,-0.167 -0.073,-0.074 -0.131,-0.169 -0.172,-0.289 -0.041,-0.118 -0.062,-0.26 -0.062,-0.423 v -1.176 h 0.788 v 0.69 c 0,0.124 0,0.228 0.014,0.313 0.01,0.085 0.03,0.159 0.064,0.224 0.032,0.061 0.081,0.108 0.146,0.141 0.065,0.033 0.155,0.048 0.272,0.048 0.031,0 0.073,0 0.125,-0.01 0.052,-0.01 0.095,-0.01 0.127,-0.018 v -1.391 h 0.783 v 3.027 l 0,0 z"
   id="path157"
   style="fill:#a7a9ac;fill-rule:evenodd" />
	<path
   d="m 1057.662,1129.489 v -0.631 c -0.133,0.016 -0.24,0.03 -0.322,0.042 -0.082,0.011 -0.162,0.035 -0.242,0.069 -0.068,0.028 -0.121,0.072 -0.159,0.13 -0.038,0.059 -0.058,0.136 -0.058,0.233 0,0.142 0.032,0.24 0.096,0.292 0.063,0.053 0.156,0.08 0.28,0.08 0.068,0 0.139,-0.019 0.211,-0.057 0.071,-0.036 0.136,-0.089 0.194,-0.158 l 0,0 z m 0,0.469 c -0.054,0.054 -0.102,0.103 -0.145,0.146 -0.042,0.043 -0.1,0.086 -0.171,0.129 -0.07,0.042 -0.138,0.073 -0.205,0.094 -0.066,0.021 -0.159,0.032 -0.278,0.032 -0.223,0 -0.407,-0.09 -0.554,-0.27 -0.147,-0.18 -0.221,-0.406 -0.221,-0.679 0,-0.225 0.037,-0.406 0.112,-0.544 0.074,-0.139 0.182,-0.248 0.322,-0.329 0.142,-0.083 0.311,-0.14 0.508,-0.173 0.197,-0.032 0.409,-0.057 0.635,-0.075 v -0.016 c 0,-0.167 -0.051,-0.283 -0.152,-0.347 -0.103,-0.063 -0.256,-0.095 -0.46,-0.095 -0.093,0 -0.2,0.02 -0.325,0.06 -0.123,0.041 -0.244,0.092 -0.362,0.155 h -0.067 v -0.73 c 0.078,-0.027 0.203,-0.059 0.376,-0.096 0.173,-0.037 0.349,-0.055 0.524,-0.055 0.433,0 0.748,0.087 0.945,0.26 0.197,0.174 0.297,0.438 0.297,0.794 v 2.06 h -0.779 v -0.321 l 0,0 z"
   id="path159"
   style="fill:#a7a9ac;fill-rule:evenodd" />
	<path
   d="m 1060.385,1128.635 v -0.755 h -0.36 c -0.11,0 -0.197,0.03 -0.259,0.091 -0.062,0.06 -0.093,0.147 -0.093,0.263 0,0.142 0.03,0.245 0.092,0.308 0.062,0.063 0.151,0.094 0.272,0.094 h 0.348 l 0,-10e-4 z m 0.781,1.644 h -0.781 v -1.051 h -0.237 l -0.603,1.051 h -0.877 l 0.721,-1.186 c -0.18,-0.099 -0.31,-0.218 -0.392,-0.36 -0.082,-0.141 -0.123,-0.329 -0.123,-0.564 0,-0.167 0.027,-0.308 0.082,-0.422 0.055,-0.114 0.128,-0.211 0.22,-0.29 0.082,-0.068 0.179,-0.12 0.29,-0.154 0.111,-0.034 0.235,-0.051 0.372,-0.051 h 1.328 v 3.027 l 0,0 z"
   id="path161"
   style="fill:#a7a9ac;fill-rule:evenodd" />
	<path
   d="m 1064.559,1128.772 c 0,-0.18 -0.012,-0.329 -0.037,-0.449 -0.024,-0.12 -0.059,-0.215 -0.102,-0.287 -0.046,-0.076 -0.099,-0.128 -0.157,-0.158 -0.058,-0.03 -0.124,-0.044 -0.199,-0.044 -0.069,0 -0.133,0.013 -0.189,0.039 -0.056,0.026 -0.108,0.076 -0.157,0.15 -0.045,0.07 -0.08,0.166 -0.107,0.288 -0.026,0.123 -0.04,0.276 -0.04,0.461 0,0.186 0.013,0.335 0.038,0.449 0.025,0.114 0.059,0.205 0.099,0.273 0.042,0.07 0.094,0.121 0.157,0.154 0.063,0.032 0.132,0.048 0.207,0.048 0.063,0 0.127,-0.016 0.191,-0.048 0.065,-0.033 0.117,-0.081 0.156,-0.146 0.046,-0.077 0.081,-0.17 0.105,-0.279 0.023,-0.108 0.035,-0.259 0.035,-0.451 l 0,0 z m 0.803,0 c 0,0.498 -0.113,0.89 -0.34,1.176 -0.226,0.287 -0.545,0.43 -0.959,0.43 -0.41,0 -0.729,-0.143 -0.956,-0.43 -0.228,-0.287 -0.342,-0.679 -0.342,-1.176 0,-0.504 0.114,-0.897 0.342,-1.183 0.228,-0.286 0.546,-0.427 0.956,-0.427 0.413,0 0.731,0.144 0.958,0.43 0.227,0.286 0.341,0.68 0.341,1.18 l 0,0 z"
   id="path163"
   style="fill:#a7a9ac;fill-rule:evenodd" />
	<path
   d="m 1067.229,1129.527 c 0.048,-0.07 0.086,-0.156 0.115,-0.257 0.029,-0.101 0.044,-0.246 0.044,-0.433 0,-0.217 -0.047,-0.392 -0.14,-0.524 -0.092,-0.132 -0.214,-0.198 -0.367,-0.198 -0.069,0 -0.144,0.011 -0.221,0.032 -0.078,0.022 -0.159,0.061 -0.244,0.119 0,0.018 0,0.044 -10e-4,0.077 -10e-4,0.033 -10e-4,0.063 -10e-4,0.09 0,0.261 0.01,0.458 0.02,0.594 0.014,0.134 0.044,0.259 0.09,0.375 0.039,0.097 0.091,0.17 0.156,0.221 0.066,0.05 0.142,0.075 0.229,0.075 0.05,0 0.104,-0.013 0.164,-0.041 0.062,-0.028 0.113,-0.071 0.156,-0.13 l 0,0 z m 0.656,-1.796 c 0.096,0.117 0.171,0.261 0.227,0.433 0.055,0.172 0.082,0.385 0.082,0.64 0,0.473 -0.116,0.853 -0.35,1.139 -0.234,0.287 -0.549,0.43 -0.945,0.43 -0.436,0 -0.76,-0.17 -0.972,-0.51 -0.212,-0.34 -0.317,-0.848 -0.317,-1.525 0,-0.13 0.01,-0.261 0.016,-0.396 0.01,-0.134 0.034,-0.296 0.071,-0.486 0.031,-0.158 0.077,-0.316 0.136,-0.473 0.059,-0.157 0.129,-0.286 0.211,-0.387 0.093,-0.115 0.219,-0.214 0.379,-0.297 0.159,-0.084 0.383,-0.143 0.671,-0.177 0.136,-0.016 0.297,-0.029 0.483,-0.04 0.186,-0.011 0.335,-0.018 0.445,-0.021 v 0.709 c -0.094,0.01 -0.181,0.01 -0.259,0.015 -0.078,0 -0.167,0.011 -0.27,0.021 -0.063,0 -0.145,0.014 -0.246,0.025 -0.101,0.011 -0.188,0.026 -0.26,0.042 -0.087,0.021 -0.167,0.055 -0.24,0.1 -0.074,0.045 -0.135,0.104 -0.183,0.178 -0.035,0.056 -0.065,0.13 -0.088,0.223 -0.023,0.092 -0.04,0.206 -0.051,0.341 0.11,-0.095 0.227,-0.172 0.35,-0.229 0.122,-0.058 0.254,-0.087 0.396,-0.087 0.141,0 0.271,0.028 0.395,0.084 0.122,0.054 0.228,0.137 0.319,0.248 l 0,0 z"
   id="path165"
   style="fill:#a7a9ac;fill-rule:evenodd" />
	<polygon
   points="1069.081,1127.251 1069.609,1129.149 1070.104,1127.251 1070.909,1127.251 1070.909,1127.251 1069.641,1131.39 1068.799,1131.39 1069.18,1130.207 1068.258,1127.251 "
   id="polygon167"
   style="fill:#a7a9ac;fill-rule:evenodd" />
	<path
   d="m 1072.721,1129.335 c 0,-0.131 -0.03,-0.223 -0.092,-0.276 -0.061,-0.053 -0.152,-0.079 -0.273,-0.079 h -0.423 v 0.692 h 0.437 c 0.11,0 0.197,-0.03 0.259,-0.09 0.06,-0.06 0.092,-0.142 0.092,-0.247 l 0,0 z m -0.112,-1.169 c 0,-0.117 -0.028,-0.198 -0.084,-0.243 -0.057,-0.045 -0.146,-0.067 -0.268,-0.067 h -0.325 v 0.604 h 0.339 c 0.108,0 0.191,-0.026 0.25,-0.078 0.059,-0.052 0.088,-0.125 0.088,-0.216 l 0,0 z m 0.911,1.199 c 0,0.146 -0.023,0.275 -0.071,0.388 -0.048,0.113 -0.112,0.208 -0.192,0.283 -0.102,0.095 -0.209,0.159 -0.321,0.193 -0.112,0.033 -0.247,0.049 -0.401,0.049 h -1.377 v -3.027 h 1.313 c 0.183,0 0.317,0.01 0.404,0.021 0.086,0.015 0.172,0.05 0.256,0.105 0.088,0.058 0.152,0.134 0.196,0.229 0.043,0.095 0.064,0.208 0.064,0.339 0,0.151 -0.033,0.283 -0.101,0.394 -0.068,0.111 -0.151,0.197 -0.253,0.256 l 10e-4,0.029 c 0.138,0.042 0.253,0.125 0.346,0.25 0.09,0.127 0.136,0.29 0.136,0.491 l 0,0 z"
   id="path169"
   style="fill:#a7a9ac;fill-rule:evenodd" />
	<path
   d="m 1075.298,1129.524 c 0.025,-0.039 0.042,-0.08 0.052,-0.123 0.01,-0.042 0.013,-0.085 0.013,-0.13 0,-0.129 -0.032,-0.226 -0.096,-0.289 -0.064,-0.063 -0.157,-0.094 -0.278,-0.094 h -0.311 v 0.779 h 0.311 c 0.081,0 0.146,-0.014 0.197,-0.042 0.051,-0.028 0.087,-0.061 0.112,-0.101 l 0,0 z m 0.861,-0.261 c 0,0.155 -0.025,0.297 -0.076,0.428 -0.051,0.13 -0.117,0.237 -0.199,0.319 -0.102,0.099 -0.206,0.169 -0.313,0.209 -0.109,0.04 -0.255,0.06 -0.438,0.06 h -1.235 v -3.027 h 0.781 v 1.022 h 0.456 c 0.181,0 0.326,0.015 0.438,0.046 0.112,0.031 0.218,0.09 0.317,0.18 0.088,0.079 0.155,0.187 0.201,0.321 0.046,0.135 0.068,0.282 0.068,0.442 l 0,0 z"
   id="path171"
   style="fill:#a7a9ac;fill-rule:evenodd" />
	<path
   d="m 1008.185,1155.8 c 0.642,0 1.113,-0.459 1.113,-1.233 v -6.909 c 0,-0.774 -0.471,-1.233 -1.113,-1.233 h -0.771 v 9.375 h 0.771 l 0,0 z m -6.769,-21.958 h 13.28 v 2.715 h -7.283 v 7.154 h 3.428 c 4.198,0 4.455,2.678 4.455,4.405 v 5.992 c 0,1.726 -0.256,4.405 -4.455,4.405 h -9.425 v -24.671 l 0,0 z"
   id="path173"
   style="fill:#005baa;fill-rule:evenodd" />
	<polygon
   points="1031.585,1158.514 1025.588,1158.514 1025.588,1146.214 1022.887,1158.514 1016.89,1158.514 1016.89,1133.842 1016.89,1133.842 1022.887,1133.842 1022.887,1146.144 1025.588,1133.842 1031.585,1133.842 "
   id="polygon175"
   style="fill:#005baa;fill-rule:evenodd" />
	<path
   d="m 1047.059,1154.109 c 0,1.726 -0.258,4.405 -4.457,4.405 h -4.968 c -4.197,0 -4.455,-2.68 -4.455,-4.405 v -15.86 c 0,-1.728 0.258,-4.406 4.455,-4.406 h 4.968 c 4.199,0 4.457,2.679 4.457,4.406 l -0.016,5.927 h -5.982 v -6.809 c 0,-0.423 -0.384,-0.81 -0.942,-0.81 -0.342,0 -0.942,0.175 -0.942,0.81 v 17.622 c 0,0.636 0.601,0.812 0.942,0.812 0.559,0 0.942,-0.388 0.942,-0.812 v -8.002 h 5.982 l 0.016,7.122 0,0 z"
   id="path177"
   style="fill:#005baa;fill-rule:evenodd" />
	<polygon
   points="1060.821,1144.205 1060.821,1146.919 1054.65,1146.919 1054.65,1155.8 1061.077,1155.8 1061.077,1158.514 1048.654,1158.514 1048.654,1133.842 1048.654,1133.842 1060.821,1133.842 1060.821,1136.557 1054.65,1136.557 1054.65,1144.205 "
   id="polygon179"
   style="fill:#005baa;fill-rule:evenodd" />
	<path
   d="m 1069.201,1147.412 c 0.641,0 1.113,-0.458 1.113,-1.233 v -8.39 c 0,-0.775 -0.473,-1.232 -1.113,-1.232 h -0.772 v 10.855 h 0.772 l 0,0 z m -6.77,-13.57 h 9.426 c 4.197,0 4.456,2.679 4.456,4.406 v 7.472 c 0,1.728 -0.259,4.405 -4.456,4.405 h -3.428 v 8.389 h -5.998 v -24.672 l 0,0 z"
   id="path181"
   style="fill:#005baa;fill-rule:evenodd" />
	<path
   d="m 1078.297,1134.823 c 0,0.232 -0.094,0.443 -0.247,0.596 -0.152,0.152 -0.363,0.247 -0.596,0.247 -0.233,0 -0.442,-0.095 -0.596,-0.247 -0.152,-0.152 -0.247,-0.363 -0.247,-0.596 0,-0.233 0.095,-0.443 0.247,-0.596 0.153,-0.153 0.363,-0.247 0.596,-0.247 0.233,0 0.443,0.094 0.596,0.247 0.153,0.152 0.247,0.363 0.247,0.596 h 0.138 c 0,-0.542 -0.438,-0.98 -0.98,-0.98 -0.541,0 -0.979,0.439 -0.979,0.98 0,0.542 0.438,0.98 0.979,0.98 0.542,0 0.98,-0.438 0.98,-0.98 h -0.138 l 0,0 z"
   id="path183"
   style="fill:#005baa;fill-rule:evenodd" />
	<path
   d="m 1077.235,1134.751 h 0.273 c 0.078,0 0.137,-0.017 0.176,-0.05 0.038,-0.033 0.058,-0.079 0.058,-0.137 0,-0.054 -0.019,-0.097 -0.057,-0.13 -0.038,-0.033 -0.092,-0.049 -0.159,-0.049 h -0.291 v 0.366 l 0,0 z m 0.729,0.675 h -0.231 l -0.188,-0.5 h -0.309 v 0.5 h -0.219 v -1.216 h 0.527 c 0.146,0 0.233,0.033 0.302,0.099 0.069,0.066 0.104,0.152 0.104,0.257 0,0.157 -0.052,0.263 -0.198,0.322 l 0.212,0.538 0,0 z"
   id="path185"
   style="fill:#005baa;fill-rule:evenodd" />
	<path
   d="m 1005.424,1169.223 1.226,0.198 c -0.203,0.545 -0.501,0.96 -0.897,1.243 -0.394,0.285 -0.854,0.426 -1.375,0.426 -0.594,0 -1.066,-0.177 -1.414,-0.53 -0.348,-0.355 -0.524,-0.843 -0.524,-1.464 0,-0.507 0.107,-0.985 0.317,-1.438 0.211,-0.451 0.529,-0.806 0.954,-1.064 0.425,-0.26 0.891,-0.391 1.398,-0.391 0.551,0 0.99,0.145 1.318,0.433 0.327,0.286 0.512,0.664 0.554,1.132 l -1.2,0.128 c -0.03,-0.26 -0.11,-0.452 -0.24,-0.574 -0.13,-0.123 -0.3,-0.185 -0.512,-0.185 -0.243,0 -0.471,0.09 -0.681,0.271 -0.211,0.182 -0.374,0.453 -0.486,0.815 -0.113,0.362 -0.169,0.701 -0.169,1.018 0,0.274 0.067,0.487 0.202,0.638 0.135,0.148 0.303,0.223 0.505,0.223 0.203,0 0.398,-0.073 0.585,-0.219 0.187,-0.146 0.333,-0.367 0.439,-0.66 l 0,0 z m 5.049,-1.942 0.237,-1.125 c 1.087,-0.474 1.928,-1.026 2.523,-1.655 h 0.768 l -1.357,6.48 h -1.269 l 0.936,-4.465 c -0.264,0.171 -0.569,0.325 -0.912,0.466 -0.345,0.142 -0.653,0.24 -0.926,0.299 l 0,0 z m 4.509,2.216 1.182,-0.098 c 0.024,0.252 0.084,0.43 0.183,0.532 0.097,0.103 0.229,0.153 0.397,0.153 0.213,0 0.402,-0.082 0.567,-0.25 0.24,-0.243 0.431,-0.635 0.57,-1.178 -0.271,0.176 -0.56,0.264 -0.861,0.264 -0.498,0 -0.908,-0.17 -1.23,-0.507 -0.322,-0.339 -0.483,-0.801 -0.483,-1.388 0,-0.655 0.206,-1.239 0.62,-1.749 0.413,-0.51 0.96,-0.765 1.643,-0.765 0.604,0 1.065,0.221 1.384,0.66 0.32,0.439 0.48,1.033 0.48,1.783 0,1.158 -0.257,2.136 -0.768,2.936 -0.51,0.801 -1.184,1.199 -2.019,1.199 -0.489,0 -0.88,-0.139 -1.173,-0.419 -0.292,-0.278 -0.457,-0.67 -0.492,-1.173 l 0,0 z m 3.239,-2.981 c 0,-0.339 -0.068,-0.59 -0.203,-0.749 -0.135,-0.16 -0.301,-0.239 -0.501,-0.239 -0.246,0 -0.456,0.113 -0.633,0.343 -0.237,0.308 -0.355,0.72 -0.355,1.239 0,0.334 0.066,0.58 0.198,0.741 0.132,0.159 0.292,0.238 0.483,0.238 0.162,0 0.324,-0.062 0.487,-0.185 0.165,-0.123 0.292,-0.316 0.386,-0.582 0.091,-0.265 0.138,-0.532 0.138,-0.806 l 0,0 z m 1.766,2.981 1.182,-0.098 c 0.024,0.252 0.084,0.43 0.183,0.532 0.098,0.103 0.229,0.153 0.397,0.153 0.213,0 0.402,-0.082 0.567,-0.25 0.24,-0.243 0.431,-0.635 0.57,-1.178 -0.271,0.176 -0.56,0.264 -0.861,0.264 -0.498,0 -0.908,-0.17 -1.23,-0.507 -0.322,-0.339 -0.483,-0.801 -0.483,-1.388 0,-0.655 0.206,-1.239 0.62,-1.749 0.413,-0.51 0.96,-0.765 1.643,-0.765 0.604,0 1.065,0.221 1.384,0.66 0.32,0.439 0.48,1.033 0.48,1.783 0,1.158 -0.257,2.136 -0.769,2.936 -0.51,0.801 -1.183,1.199 -2.019,1.199 -0.489,0 -0.88,-0.139 -1.173,-0.419 -0.291,-0.278 -0.456,-0.67 -0.491,-1.173 l 0,0 z m 3.239,-2.981 c 0,-0.339 -0.067,-0.59 -0.202,-0.749 -0.135,-0.16 -0.302,-0.239 -0.501,-0.239 -0.246,0 -0.456,0.113 -0.633,0.343 -0.237,0.308 -0.355,0.72 -0.355,1.239 0,0.334 0.066,0.58 0.198,0.741 0.132,0.159 0.293,0.238 0.483,0.238 0.162,0 0.324,-0.062 0.487,-0.185 0.165,-0.123 0.292,-0.316 0.386,-0.582 0.09,-0.265 0.137,-0.532 0.137,-0.806 l 0,0 z m 3.978,3.151 h -2.537 l 0.221,-1.055 3.484,-4.074 h 1.089 l -0.848,4.057 h 0.782 l -0.224,1.072 h -0.781 l -0.277,1.313 h -1.188 l 0.279,-1.313 0,0 z m 0.224,-1.072 0.417,-2.009 -1.701,2.009 h 1.284 l 0,0 z m 6.504,-0.959 -1.107,-0.192 c 0.258,-0.823 0.857,-1.235 1.802,-1.235 0.697,0 1.193,0.13 1.491,0.392 0.298,0.261 0.446,0.572 0.446,0.936 0,0.387 -0.138,0.688 -0.414,0.906 -0.274,0.216 -0.798,0.414 -1.567,0.593 -0.52,0.123 -0.849,0.225 -0.99,0.303 -0.139,0.079 -0.21,0.199 -0.21,0.361 0,0.143 0.072,0.261 0.218,0.355 0.144,0.093 0.336,0.142 0.573,0.142 0.563,0 0.91,-0.229 1.041,-0.683 l 1.187,0.193 c -0.129,0.47 -0.379,0.816 -0.747,1.042 -0.369,0.226 -0.886,0.338 -1.552,0.338 -0.643,0 -1.118,-0.145 -1.425,-0.432 -0.308,-0.29 -0.46,-0.615 -0.46,-0.979 0,-0.246 0.064,-0.462 0.191,-0.647 0.128,-0.187 0.297,-0.332 0.511,-0.438 0.211,-0.104 0.605,-0.229 1.183,-0.373 0.612,-0.148 0.986,-0.263 1.121,-0.338 0.135,-0.073 0.202,-0.201 0.202,-0.383 0,-0.129 -0.054,-0.225 -0.161,-0.288 -0.11,-0.063 -0.271,-0.094 -0.489,-0.094 -0.446,0 -0.728,0.174 -0.844,0.521 l 0,0 z m 3.119,1.407 c 0,-0.864 0.245,-1.554 0.732,-2.067 0.487,-0.515 1.13,-0.772 1.923,-0.772 0.688,0 1.226,0.191 1.612,0.57 0.388,0.38 0.581,0.89 0.581,1.531 0,0.756 -0.241,1.409 -0.727,1.959 -0.482,0.553 -1.131,0.826 -1.942,0.826 -0.439,0 -0.828,-0.086 -1.168,-0.264 -0.339,-0.175 -0.593,-0.424 -0.761,-0.746 -0.166,-0.321 -0.25,-0.667 -0.25,-1.037 l 0,0 z m 3.595,-0.901 c 0,-0.299 -0.087,-0.537 -0.262,-0.719 -0.175,-0.18 -0.399,-0.27 -0.674,-0.27 -0.273,0 -0.515,0.084 -0.727,0.253 -0.21,0.168 -0.375,0.413 -0.492,0.734 -0.116,0.32 -0.175,0.615 -0.175,0.885 0,0.334 0.092,0.6 0.272,0.796 0.182,0.195 0.41,0.294 0.686,0.294 0.346,0 0.637,-0.148 0.87,-0.443 0.335,-0.419 0.502,-0.928 0.502,-1.53 l 0,0 z m 3.873,-2.97 0.224,-0.918 h 0.4 c 1.005,0 1.671,0.19 1.999,0.569 0.329,0.382 0.492,0.987 0.492,1.815 0,1.275 -0.234,2.335 -0.7,3.18 -0.469,0.846 -1.215,1.268 -2.244,1.268 -0.624,0 -1.139,-0.171 -1.542,-0.516 -0.405,-0.344 -0.607,-0.842 -0.607,-1.493 0,-0.778 0.255,-1.451 0.764,-2.019 0.508,-0.567 1.143,-0.851 1.904,-0.851 0.249,0 0.481,0.04 0.696,0.122 0.216,0.08 0.415,0.2 0.6,0.362 0.01,-0.174 0.014,-0.312 0.014,-0.418 0,-0.428 -0.104,-0.719 -0.311,-0.872 -0.205,-0.154 -0.572,-0.23 -1.101,-0.23 h -0.588 l 0,10e-4 z m 0.87,1.965 c -0.486,0 -0.872,0.216 -1.157,0.647 -0.283,0.433 -0.426,0.876 -0.426,1.334 0,0.316 0.086,0.56 0.255,0.731 0.17,0.171 0.389,0.257 0.655,0.257 0.46,0 0.833,-0.24 1.121,-0.72 0.286,-0.481 0.431,-0.954 0.431,-1.421 0,-0.264 -0.08,-0.468 -0.24,-0.612 -0.16,-0.145 -0.373,-0.216 -0.639,-0.216 l 0,0 z m 4.319,0.499 -1.231,-0.104 c 0.141,-0.416 0.387,-0.741 0.736,-0.975 0.352,-0.234 0.814,-0.354 1.391,-0.354 0.602,0 1.046,0.122 1.332,0.363 0.288,0.242 0.431,0.537 0.431,0.885 0,0.142 -0.012,0.291 -0.037,0.449 -0.024,0.158 -0.111,0.574 -0.261,1.248 -0.123,0.557 -0.186,0.946 -0.186,1.17 0,0.197 0.035,0.42 0.105,0.662 h -1.226 c -0.05,-0.169 -0.081,-0.345 -0.093,-0.527 -0.185,0.205 -0.396,0.363 -0.636,0.473 -0.241,0.11 -0.483,0.164 -0.727,0.164 -0.387,0 -0.706,-0.125 -0.958,-0.379 -0.251,-0.254 -0.377,-0.579 -0.377,-0.979 0,-0.445 0.139,-0.801 0.414,-1.067 0.277,-0.267 0.772,-0.428 1.483,-0.483 0.602,-0.049 1.002,-0.109 1.205,-0.18 0.052,-0.177 0.079,-0.316 0.079,-0.423 0,-0.134 -0.056,-0.248 -0.163,-0.338 -0.108,-0.091 -0.269,-0.137 -0.483,-0.137 -0.225,0 -0.403,0.047 -0.534,0.139 -0.129,0.093 -0.217,0.224 -0.264,0.393 l 0,0 z m 1.2,1.17 c -0.076,0.02 -0.179,0.039 -0.305,0.058 -0.631,0.076 -1.045,0.188 -1.238,0.334 -0.139,0.105 -0.206,0.248 -0.206,0.426 0,0.146 0.053,0.271 0.157,0.371 0.105,0.102 0.245,0.151 0.417,0.151 0.19,0 0.371,-0.045 0.539,-0.138 0.169,-0.092 0.295,-0.212 0.378,-0.355 0.084,-0.146 0.157,-0.372 0.222,-0.68 l 0.036,-0.167 0,0 z"
   id="path187"
   style="fill:#005baa" />
</g>

</svg>