<?xml version="1.0" encoding="UTF-8" standalone="no"?>
<!-- Created with Inkscape (http://www.inkscape.org/) -->

<svg
   xmlns:dc="http://purl.org/dc/elements/1.1/"
   xmlns:cc="http://creativecommons.org/ns#"
   xmlns:rdf="http://www.w3.org/1999/02/22-rdf-syntax-ns#"
   xmlns:svg="http://www.w3.org/2000/svg"
   xmlns="http://www.w3.org/2000/svg"
   version="1.1"
   width="242.99997"
   height="169"
   viewBox="0 0 242.99998 169"
   id="Слой_1"
   xml:space="preserve"><metadata
   id="metadata777"><rdf:RDF><cc:Work
       rdf:about=""><dc:format>image/svg+xml</dc:format><dc:type
         rdf:resource="http://purl.org/dc/dcmitype/StillImage" /><dc:title></dc:title></cc:Work></rdf:RDF></metadata><defs
   id="defs775" />

<path
   d="m 42.000001,-2.2413499e-7 0,35.00000122413499 14,0 L 56.000001,16 187,16 l 0,19.000001 14,0 L 201,-2.2413499e-7 z"
   id="rect3754"
   style="fill:#f68a1f;fill-opacity:1;stroke:none" /><path
   d="m 42.000001,169 0,-40 14,0 0,24 L 187,153 l 0,-24 14,0 0,40 z"
   id="rect3754-7"
   style="fill:#f68a1f;fill-opacity:1;stroke:none" /><path
   d="m 0,46.000014 0,33 14,0 0,-24 8,0 0,24 14,0 0,-33 z"
   id="rect4565"
   style="fill:#63bc44;fill-opacity:1;stroke:none" /><path
   d="m 44.000001,46.000001 0,33.000001 13,0 -10e-7,-5.000008 21,0 2e-6,-27.999993 z M 57,55.000014 l 8.96875,0 0,10 -8.96875,0 z"
   id="rect4589"
   style="fill:#63bc44;fill-opacity:1;stroke:none" /><path
   d="m 86,46.000014 0,33 35,0 0,-33 z m 13,9 9,0 0,15 -9,0 z"
   id="rect4598"
   style="fill:#63bc44;fill-opacity:1;stroke:none" /><path
   d="m 128,46.000014 0,33 30,0 0,-9 -15,0 0,-3 8,0 0,-9 -8,0 0,-3 15,0 0,-9 z"
   id="rect4623"
   style="fill:#63bc44;fill-opacity:1;stroke:none" /><path
   d="m 166,46.000014 0,33 14,0 0,-15 8,4 0,11 14,0 0,-16 -6,-4 6,-2 0,-11 -14,0 0,6 -8,3 0,-9 z"
   id="rect4653"
   style="fill:#63bc44;fill-opacity:1;stroke:none" /><path
   d="m 209,46.000014 0,9 9.99997,0 0,24 14,0 0,-24 10,0 0,-9 -33.99997,0 z"
   id="rect4678"
   style="fill:#63bc44;fill-opacity:1;stroke:none" /><path
   d="m 44,86.000014 0,23.999996 -4,0 0,9 41,0 0,-9 -4,0 0,-23.999996 z m 13,9 7,0 0,14.999996 -7,0 z"
   id="rect4683"
   style="fill:#63bc44;fill-opacity:1;stroke:none" /><path
   d="m 86,86.000014 0,18.999996 22,0 0,5 -22,0 0,9 36,0 0,-32.999996 -14,0 0,10 -9,0 0,-10 z"
   id="rect4708"
   style="fill:#63bc44;fill-opacity:1;stroke:none" /><path
   d="m 129,86.000014 0,32.999996 14,0 0,-20.999996 15,0 0,-12 -28,0 z"
   id="rect4717"
   style="fill:#63bc44;fill-opacity:1;stroke:none" /><path
   d="m 166,86.000014 0,32.999996 14,0 0,-5 8,0 0,5 14,0 0,-32.999996 z m 14,9 8,0 0,9.999996 -8,0 z"
   id="rect4722"
   style="fill:#63bc44;fill-opacity:1;stroke:none" /></svg>