<?xml version="1.0" encoding="UTF-8" standalone="no"?>
<!-- Created with Inkscape (http://www.inkscape.org/) -->

<svg
   xmlns:dc="http://purl.org/dc/elements/1.1/"
   xmlns:cc="http://creativecommons.org/ns#"
   xmlns:rdf="http://www.w3.org/1999/02/22-rdf-syntax-ns#"
   xmlns:svg="http://www.w3.org/2000/svg"
   xmlns="http://www.w3.org/2000/svg"
   version="1.1"
   width="1000"
   height="1000"
   id="svg4442">
  <defs
     id="defs4444" />
  <metadata
     id="metadata4447">
    <rdf:RDF>
      <cc:Work
         rdf:about="">
        <dc:format>image/svg+xml</dc:format>
        <dc:type
           rdf:resource="http://purl.org/dc/dcmitype/StillImage" />
        <dc:title></dc:title>
      </cc:Work>
    </rdf:RDF>
  </metadata>
  <g
     transform="translate(0,-52.362168)"
     id="layer1">
    <path
       d="m 110.9375,52.393368 c -3.12305,0.006 -6.8125,1.2188 -10.9375,4.9688 l 0,28 c 10,-8 21,-2 21,-1 0,-1 11,-7 21,1 l 0,-28 c -4.125,-3.75 -7.81445,-4.9629 -10.9375,-4.9688 -5.20508,-0.01 -8.8125,3.3438 -10.0625,3.9688 -1.25,-0.625 -4.85742,-3.9787 -10.0625,-3.9688 z m -0.6875,2.875 c 0.2555,-0.0139 0.51506,-0.006 0.78125,0 2.30091,0.0513 4.99115,0.8946 7.96875,3.25 l 0,21.125 c -7.21633,-2.3506 -13.25121,-1.1137 -16,0.7188 l 0,-22 c 0.80567,-0.5493 3.41751,-2.8839 7.25,-3.0938 z m 20.71875,0 c 4.25903,-0.0945 7.17187,2.5079 8.03125,3.0938 l 0,22 c -2.74879,-1.8325 -8.78367,-3.0694 -16,-0.7188 l 0,-21.125 c 2.9776,-2.3554 5.66784,-3.1987 7.96875,-3.25 z M 111,60.362168 c -3,0 -5,1 -5,1 l 0,2 1,0 c 0,0 2,-1 4,-1 2,0 4,1 4,1 l 1,0 0,-2 c 0,0 -2,-1 -5,-1 z m 20,0 c -3,0 -5,1 -5,1 l 0,2 1,0 c 0,0 2,-1 4,-1 2,0 4,1 4,1 l 1,0 0,-2 c 0,0 -2,-1 -5,-1 z m -20,5 c -3,0 -5,1 -5,1 l 0,2 1,0 c 0,0 2,-1 4,-1 2,0 4,1 4,1 l 1,0 0,-2 c 0,0 -2,-1 -5,-1 z m 20,0 c -3,0 -5,1 -5,1 l 0,2 1,0 c 0,0 2,-1 4,-1 2,0 4,1 4,1 l 1,0 0,-2 c 0,0 -2,-1 -5,-1 z m -20,5 c -3,0 -5,1 -5,1 l 0,2 1,0 c 0,0 2,-1 4,-1 2,0 4,1 4,1 l 1,0 0,-2 c 0,0 -2,-1 -5,-1 z m 20,0 c -3,0 -5,1 -5,1 l 0,2 1,0 c 0,0 2,-1 4,-1 2,0 4,1 4,1 l 1,0 0,-2 c 0,0 -2,-1 -5,-1 z m -19.59375,12.4688 c -3.83862,-0.005 -7.46875,1.2812 -11.40625,3.5312 l 0,2 2,0 c 8,-5 16,-2 19,0 3,-2 11,-5 19,0 l 2,0 0,-2 c -3.9375,-2.25 -7.56763,-3.5358 -11.40625,-3.5312 -2.9856,0.003 -6.09375,0.7812 -9.59375,2.5312 -3.5,-1.75 -6.60815,-2.5312 -9.59375,-2.5312 z"
       id="rect3829"
       style="fill:#0b5ba6;fill-opacity:1;stroke:none" />
    <path
       d="m 9,52.362168 c -7,0 -9,11.999999 -9,13.999999 0,0.742 0.68032,2 2,2 l 6,0 c -0.001,1.72125 -0.01,13.825271 0,14.000001 0.14205,2.57384 2.66854,3.0316 4,3 l 10,0 10,0 c 1.33146,0.0316 3.85795,-0.42616 4,-3 0.01,-0.17473 10e-4,-12.278751 0,-14.000001 l 6,0 c 1.31968,0 2,-1.258 2,-2 0,-2 -2,-13.999999 -9,-13.999999 l -13,0 -13,0 z m 0,2 13,0 13,0 c 3.49895,0 6,6 7,9.999999 0.36733,1.46933 -0.79916,2 -2,2 -3.52143,0 -8,0 -8,-1 0,-2 0.58114,-4.41886 -1,-5.999999 -1,-0.99999 -2,-1 -4,-1 l -5,0 -5,0 c -2,0 -3,1e-5 -4,1 -1.58114,1.581139 -1,3.999999 -1,5.999999 0,1 -4.47857,1 -8,1 -1.20084,0 -2.36733,-0.53067 -2,-2 1,-3.999999 3.50105,-9.999999 7,-9.999999 z m 9,6 4,0 4,0 c 3,0 4,0 4,1.999999 l 0,3 c 0,0.9245 0.0491,2.67412 4,2.9375 l 0,14.062501 c -0.18366,0.955 -1.00529,1.0275 -2,1 l -10,0 -10,0 c -0.99471,0.0275 -1.81634,-0.045 -2,-1 l 0,-14.062501 c 3.95089,-0.26338 4,-2.013 4,-2.9375 l 0,-3 c 0,-1.999999 1,-1.999999 4,-1.999999 z m -4,6.999999 0,4 4,0 0,-4 -4,0 z m 6,0 0,4 4,0 0,-4 -4,0 z m 6,0 0,4 4,0 0,-4 -4,0 z m -12,5 0,4 4,0 0,-4 -4,0 z m 6,0 0,4 4,0 0,-4 -4,0 z m 6,0 0,4 4,0 0,-4 -4,0 z m -12,4.999999 0,4.000002 4,0 0,-4.000002 -4,0 z m 6,0 0,4.000002 4,0 0,-4.000002 -4,0 z m 6,0 0,4.000002 4,0 0,-4.000002 -4,0 z"
       id="rect5117"
       style="fill:#ed1b2f;fill-opacity:1;stroke:none" />
    <path
       d="m 207.39284,52.362168 0,6.03773 -7.39284,6.79246 0,27.16981 23,0 0,-27.16981 -5.75,-5.283021 0,-7.547169 -1.64284,0 0,6.03773 -1.64285,-1.509427 -4.92862,0 0,-4.528303 -1.64285,0 z m 2.46432,6.03773 3.28568,0 2.46432,2.264158 c 0,0.48521 -0.68294,1.284995 -1.38621,1.792449 -0.38255,-1.046046 -1.45349,-1.792449 -2.72084,-1.792449 -1.58797,0 -2.87511,1.182637 -2.87511,2.641505 0,1.458878 1.28714,2.641506 2.87511,2.641506 1.12882,0 2.09641,-0.592445 2.5669,-1.462258 1.23131,-0.612672 2.35135,-1.553816 2.875,-2.594338 l 3.59377,3.301887 0,24.905654 -18.07156,0 0,-24.905654 7.39294,-6.79246 z m -4.92852,15.09434 0,1.509437 13.14272,0 0,-1.509437 -13.14272,0 z m 0,5.283021 0,1.509438 13.14272,0 0,-1.509438 -13.14272,0 z m 0,5.283021 0,1.509429 13.14272,0 0,-1.509429 -13.14272,0 z"
       id="rect4495-4"
       style="fill:#0b5ba6;fill-opacity:1;stroke:none" />
  </g>
</svg>
